<svg xmlns="http://www.w3.org/2000/svg" width="32" height="32" viewBox="0 0 32 32" fill="none">
  <path d="M11.1429 26.8571H5.14286C2.30476 26.8571 0 24.5524 0 21.7143C0 19.1048 1.95238 16.9905 4.38095 16.5714C4.6 13.9619 6.8381 12 9.52381 12C10.2857 12 11.0476 12.1905 11.7143 12.5714C12.5143 10.1048 14.8762 8.42857 17.5238 8.42857C20.8 8.42857 23.4476 11.0762 23.4476 14.3524C23.4476 14.781 23.3905 15.1714 23.3143 15.5619C23.4476 15.5429 23.5619 15.5238 23.6952 15.5238C26.5524 15.5238 28.8571 17.8286 28.8571 20.6857C28.8571 23.5429 26.5524 25.8476 23.6952 25.8476C23.3238 25.8476 22.9714 25.8095 22.6381 25.7143" stroke="white" stroke-width="2" stroke-miterlimit="10" stroke-linecap="round" stroke-linejoin="round"/>
  <path d="M26.8571 8C29.6952 8 32 5.6381 32 2.7619C32 2.3524 31.9619 1.9619 31.8667 1.5905M23.8095 8C23.5333 5.3524 21.2952 3.2762 18.5714 3.2762C17.181 3.2762 15.9048 3.7905 14.9143 4.6476" stroke="white" stroke-width="2" stroke-miterlimit="10" stroke-linecap="round" stroke-linejoin="round"/>
</svg> 